<?xml version="1.0" standalone="no"?>
<!DOCTYPE svg PUBLIC "-//W3C//DTD SVG 20010904//EN"
 "http://www.w3.org/TR/2001/REC-SVG-20010904/DTD/svg10.dtd">
<svg version="1.0" xmlns="http://www.w3.org/2000/svg"
 width="512.000000pt" height="512.000000pt" viewBox="0 0 512.000000 512.000000"
 preserveAspectRatio="xMidYMid meet">
<metadata>
Created by potrace 1.11, written by Peter Selinger 2001-2013
</metadata>
<g transform="translate(0.000000,512.000000) scale(0.100000,-0.100000)"
fill="#000000" stroke="none">
<path d="M2358 4805 c-3 -3 -25 -8 -49 -10 -91 -10 -125 -15 -149 -20 -14 -3
-39 -8 -56 -11 -18 -3 -72 -16 -120 -30 -49 -13 -93 -26 -99 -27 -5 -1 -15 -6
-21 -9 -6 -4 -23 -9 -38 -12 -15 -3 -34 -10 -42 -17 -8 -6 -14 -9 -14 -5 0 4
-13 0 -30 -9 -16 -8 -32 -15 -35 -15 -3 1 -44 -17 -91 -39 -47 -23 -90 -41
-95 -41 -5 0 -9 -4 -9 -8 0 -5 -18 -16 -40 -26 -46 -20 -222 -133 -232 -150
-4 -6 -8 -8 -8 -3 0 4 -8 -1 -18 -10 -10 -10 -35 -31 -56 -48 -79 -63 -123
-102 -191 -172 -85 -86 -145 -153 -165 -183 -14 -21 -24 -33 -62 -79 -10 -12
-15 -21 -13 -21 3 0 0 -7 -7 -15 -7 -9 -18 -21 -23 -28 -6 -7 -24 -34 -40 -62
-17 -27 -36 -59 -43 -70 -62 -103 -193 -407 -202 -470 0 -3 -7 -23 -15 -45 -8
-22 -14 -41 -14 -43 0 -1 -2 -9 -5 -17 -13 -42 -41 -195 -52 -295 -8 -67 -13
-447 -6 -459 3 -6 7 -30 8 -55 3 -49 10 -100 19 -141 3 -14 8 -38 11 -55 9
-44 12 -60 14 -60 1 0 3 -9 5 -20 5 -26 13 -59 15 -62 2 -2 3 -6 4 -10 2 -5 9
-28 16 -53 7 -25 14 -48 16 -52 1 -5 3 -10 4 -13 1 -3 3 -9 4 -13 0 -4 8 -26
18 -47 17 -41 30 -76 32 -85 1 -3 7 -15 14 -27 7 -13 9 -23 5 -23 -4 0 -3 -4
2 -8 11 -7 65 -118 64 -128 0 -4 3 -10 8 -13 4 -3 19 -26 32 -51 14 -25 47
-78 75 -119 28 -40 56 -81 61 -89 6 -9 16 -22 23 -30 7 -8 25 -30 40 -50 65
-86 194 -219 287 -297 33 -27 62 -53 63 -57 2 -5 10 -8 17 -8 7 0 15 -4 17 -8
5 -13 126 -102 138 -102 6 0 13 -7 16 -15 4 -8 10 -13 14 -10 4 3 13 -1 19 -9
6 -7 29 -21 51 -31 22 -10 40 -22 40 -27 0 -4 8 -8 19 -8 10 0 24 -7 31 -15 7
-9 15 -13 18 -10 3 3 14 -2 24 -12 10 -9 18 -12 18 -7 0 5 4 4 8 -2 13 -20
330 -137 432 -160 11 -2 29 -6 41 -9 11 -2 28 -6 37 -9 9 -3 34 -8 55 -11 20
-3 54 -7 75 -11 64 -9 134 -15 227 -19 50 -2 92 -5 95 -5 3 -1 23 -1 45 0 22
1 69 4 105 5 36 2 65 4 65 5 0 1 20 3 45 5 25 2 61 5 80 9 130 21 143 23 148
26 1 2 11 4 22 5 11 1 22 4 25 5 3 1 10 4 15 5 6 1 12 4 15 5 3 1 13 3 23 5 9
1 28 6 42 12 14 6 28 9 33 6 4 -2 7 1 7 8 0 7 2 10 6 7 5 -5 105 26 169 53 17
7 32 13 35 14 3 0 28 12 55 25 28 13 52 25 55 25 10 3 65 30 70 35 6 6 83 48
117 64 13 6 23 14 23 19 0 4 7 7 15 7 8 0 15 4 15 8 0 5 11 14 25 20 14 7 31
17 38 22 7 6 48 38 92 73 44 34 98 78 119 97 88 79 261 260 248 260 -3 0 5 8
16 19 12 10 22 23 22 29 0 6 3 12 8 14 9 4 72 85 72 93 0 8 44 69 53 73 4 2 7
9 7 17 0 7 7 18 15 25 8 7 12 16 9 21 -3 5 -2 9 3 9 4 0 21 28 38 63 16 34 35
69 41 77 7 8 14 24 16 35 1 11 5 22 8 25 3 3 13 24 23 48 9 23 24 59 32 80 9
20 17 48 20 61 2 12 9 28 14 35 5 6 10 14 10 19 1 4 1 8 2 10 0 1 2 9 4 17 1
8 11 42 21 75 10 33 18 65 19 70 1 6 3 12 5 15 1 3 3 19 5 35 1 17 3 30 4 30
3 0 9 32 16 85 3 25 8 61 11 80 8 47 13 462 6 475 -3 5 -7 28 -8 50 -2 22 -5
54 -9 70 -3 17 -10 55 -15 85 -6 30 -14 70 -19 88 -5 18 -10 35 -10 37 -2 18
-16 69 -34 125 -12 36 -22 67 -22 70 -1 3 -7 19 -14 35 -7 17 -14 37 -16 46
-3 16 -9 29 -33 76 -7 13 -12 29 -12 36 0 7 -6 19 -12 26 -7 6 -13 15 -13 19
-1 4 -9 22 -19 41 -17 32 -28 51 -68 122 -7 13 -19 32 -27 42 -8 9 -11 17 -7
17 13 0 -38 45 -64 56 -14 6 -34 8 -45 4 -11 -4 -23 -6 -27 -3 -5 2 -8 -1 -8
-6 0 -6 -6 -11 -13 -11 -7 0 -20 -20 -29 -45 -10 -25 -13 -45 -8 -45 6 0 9 -3
8 -7 -4 -13 24 -73 34 -73 5 0 7 -4 4 -9 -3 -5 1 -14 9 -21 8 -7 15 -18 15
-25 0 -7 7 -18 15 -25 8 -6 14 -15 13 -18 -1 -4 6 -23 17 -42 11 -19 20 -37
20 -40 1 -3 12 -27 25 -55 12 -27 26 -59 31 -70 20 -52 22 -61 21 -67 -1 -5 3
-8 9 -8 6 0 9 -6 6 -14 -3 -8 -3 -17 1 -21 4 -4 8 -11 8 -16 1 -5 3 -11 4 -14
1 -3 4 -9 5 -15 1 -5 3 -11 5 -12 2 -3 3 -9 25 -93 8 -33 17 -73 20 -90 3 -16
8 -37 10 -45 4 -16 14 -81 22 -145 2 -22 5 -77 6 -122 1 -46 5 -83 8 -83 4 0
4 -17 0 -37 -3 -21 -6 -68 -6 -105 0 -38 -2 -68 -5 -68 -3 0 -5 -15 -5 -32 -1
-42 -20 -173 -25 -173 -1 0 -3 -9 -5 -20 -12 -67 -20 -105 -28 -125 -20 -54
-36 -114 -32 -120 3 -5 1 -10 -5 -12 -5 -1 -11 -12 -13 -23 -4 -23 -13 -43
-79 -184 -117 -251 -305 -499 -502 -664 -27 -23 -58 -50 -68 -60 -10 -9 -22
-17 -27 -17 -5 0 -14 -7 -21 -15 -17 -20 -206 -145 -220 -145 -5 0 -10 -5 -10
-12 0 -6 -3 -8 -6 -5 -4 4 -20 -3 -35 -14 -16 -11 -29 -17 -29 -12 0 4 -4 2
-9 -5 -4 -7 -14 -15 -22 -17 -38 -9 -59 -18 -59 -26 0 -5 -3 -8 -7 -7 -5 2
-28 -6 -53 -16 -25 -11 -48 -19 -52 -18 -5 1 -8 -3 -8 -10 0 -6 -3 -9 -6 -5
-3 3 -28 -3 -55 -13 -27 -11 -49 -18 -49 -15 0 2 -12 -2 -27 -10 -15 -8 -30
-12 -35 -9 -4 3 -14 2 -20 -3 -7 -4 -17 -8 -23 -10 -5 -1 -20 -4 -32 -7 -38
-10 -59 -14 -94 -20 -19 -3 -45 -8 -59 -11 -117 -25 -563 -25 -652 1 -10 3
-28 7 -40 9 -35 6 -70 14 -110 24 -20 5 -39 6 -42 3 -4 -3 -6 -1 -6 5 0 5 -6
10 -12 11 -24 1 -119 29 -168 49 -8 4 -17 7 -20 8 -18 6 -54 22 -118 51 -41
19 -75 34 -77 34 -2 0 -32 17 -67 37 -35 21 -66 36 -70 35 -5 -1 -8 2 -8 6 0
4 -22 21 -50 37 -27 16 -50 34 -50 39 0 5 -3 6 -6 3 -4 -4 -15 3 -25 15 -11
11 -19 17 -19 13 0 -4 -8 2 -19 13 -10 12 -21 22 -25 22 -20 0 -211 180 -276
261 -19 23 -45 53 -58 66 -13 13 -20 23 -17 23 3 0 -4 10 -15 22 -40 43 -195
289 -195 309 0 4 -6 14 -12 20 -7 7 -13 17 -13 23 0 5 -9 28 -19 50 -32 67
-70 166 -64 166 3 0 1 6 -4 13 -5 6 -15 32 -22 57 -8 25 -19 63 -26 85 -6 22
-11 48 -9 58 1 9 -1 17 -5 17 -4 0 -8 6 -8 13 -1 17 -11 76 -19 112 -3 17 -7
46 -8 65 -1 19 -5 41 -10 49 -7 10 -5 12 3 6 10 -6 11 -3 3 11 -10 20 -12 394
-2 394 3 0 6 18 5 41 -1 22 2 42 6 45 4 2 6 17 5 34 -1 16 1 30 4 30 3 0 7 8
8 18 2 22 10 57 12 57 1 0 3 14 5 30 1 17 4 31 5 33 1 1 4 7 5 12 1 6 4 12 5
15 1 3 3 8 4 13 1 4 4 12 7 17 4 6 5 18 4 28 -2 9 1 17 6 17 6 0 8 3 6 8 -3 4
0 18 6 32 5 14 11 31 13 39 6 29 98 237 113 255 9 10 15 20 13 22 -4 6 29 66
44 82 8 7 14 20 14 28 0 8 5 14 10 14 6 0 10 6 10 13 0 12 9 26 50 74 5 7 10
15 10 18 0 8 149 190 197 240 78 82 305 270 326 270 4 0 11 5 15 10 11 16 62
47 62 38 0 -5 4 -3 8 3 14 20 158 100 175 96 4 -1 7 2 7 8 0 5 9 10 20 10 11
0 20 4 20 8 0 5 6 9 13 9 6 0 28 7 47 16 36 17 167 66 175 66 3 0 29 7 59 16
29 9 64 18 77 20 13 3 35 7 49 10 14 3 36 8 50 11 14 3 36 7 49 10 12 3 45 6
72 7 27 1 49 5 49 8 0 7 372 6 385 -2 6 -3 21 -4 35 -3 14 1 35 -2 48 -7 15
-6 22 -5 22 4 0 7 3 8 8 2 4 -5 16 -11 27 -12 17 -1 46 -7 155 -30 34 -7 43
-9 60 -16 17 -6 70 -20 85 -22 6 -1 21 -7 35 -13 21 -9 53 -21 70 -27 25 -8
68 -27 82 -35 10 -6 25 -10 33 -10 8 0 15 -4 15 -10 0 -5 9 -10 19 -10 11 0
22 -4 25 -8 3 -5 23 -9 45 -9 107 0 137 152 36 188 -19 7 -35 17 -35 21 0 4
-8 8 -18 8 -10 0 -22 4 -27 9 -6 5 -37 18 -69 30 -33 12 -64 25 -70 29 -6 3
-20 8 -31 9 -11 2 -29 7 -40 13 -36 17 -158 49 -167 44 -4 -3 -8 0 -8 5 0 6
-3 10 -7 9 -5 -1 -39 4 -78 11 -85 15 -149 24 -192 25 -18 1 -33 4 -33 7 0 3
-85 6 -190 6 -118 0 -190 -3 -190 -10 0 -5 -5 -5 -13 2 -8 6 -16 8 -19 6z"/>
<path d="M3982 4498 c-34 -9 -55 -38 -57 -78 -1 -14 -4 -31 -8 -37 -4 -6 -3
-15 3 -18 7 -4 7 -12 2 -18 -10 -14 -10 -27 1 -44 4 -6 3 -14 -3 -18 -6 -4 -8
-10 -5 -15 3 -5 -27 -7 -67 -6 -40 2 -79 -2 -85 -7 -7 -5 -13 -6 -13 -2 0 4
-7 2 -15 -5 -8 -7 -15 -10 -15 -6 0 3 -8 -2 -18 -11 -11 -10 -17 -21 -15 -25
2 -5 0 -8 -5 -8 -5 0 -8 -19 -6 -42 5 -61 38 -91 103 -94 27 -1 54 -5 60 -8 6
-4 11 -3 11 3 0 17 55 7 66 -13 6 -10 8 -32 4 -50 -14 -69 19 -166 57 -166 7
0 13 -4 13 -9 0 -5 12 -8 28 -6 15 2 30 4 35 4 17 2 63 57 62 76 0 11 3 25 8
32 4 6 3 14 -3 18 -8 5 -8 10 0 20 8 9 8 15 0 20 -6 4 -7 13 -2 23 5 9 8 26 7
37 -2 19 4 20 85 20 109 0 136 13 148 69 6 29 5 49 -4 67 -25 50 -51 61 -156
61 -45 0 -71 5 -79 14 -6 8 -8 14 -3 14 5 0 9 18 9 40 0 22 -2 40 -5 40 -3 0
-5 19 -6 42 0 34 -6 46 -33 69 -35 29 -46 31 -99 17z"/>
<path d="M1987 4169 c-17 -9 -37 -15 -44 -12 -7 3 -13 0 -13 -6 0 -6 -8 -11
-18 -11 -10 0 -23 -5 -29 -11 -6 -6 -17 -11 -24 -13 -8 -1 -38 -14 -66 -29
-29 -15 -56 -27 -59 -26 -4 0 -10 -3 -13 -8 -3 -5 -28 -22 -56 -38 -27 -16
-58 -37 -69 -47 -11 -10 -24 -18 -29 -18 -4 0 -14 -6 -22 -12 -7 -7 -28 -24
-47 -38 -52 -38 -249 -239 -294 -300 -47 -64 -165 -250 -159 -250 3 0 -7 -20
-20 -45 -14 -25 -25 -47 -25 -50 0 -3 -6 -18 -14 -34 -9 -16 -12 -31 -9 -35 4
-3 2 -6 -4 -6 -6 0 -9 -17 -7 -41 3 -30 11 -48 31 -65 15 -12 30 -21 34 -18 4
2 10 0 13 -4 3 -5 18 -7 33 -4 51 9 61 24 134 190 7 17 17 32 21 32 5 0 8 6 8
13 0 18 104 174 160 239 57 67 197 208 207 208 5 0 24 14 43 30 19 16 40 34
47 40 7 6 24 15 38 22 14 6 25 15 25 20 0 5 4 7 9 3 5 -3 13 0 16 5 4 6 17 15
28 21 12 5 29 13 37 19 19 13 166 80 174 80 21 0 97 43 110 62 18 25 22 98 6
98 -5 0 -10 5 -10 11 0 15 -26 39 -34 32 -3 -4 -6 -2 -6 4 0 15 -67 10 -103
-8z"/>
<path d="M2530 3632 c-27 -9 -61 -48 -66 -77 -3 -16 -7 -32 -10 -37 -3 -4 -2
-8 3 -8 4 0 8 -35 8 -77 0 -76 -11 -103 -35 -88 -6 3 -10 1 -10 -6 0 -8 -4 -8
-13 -1 -7 6 -19 7 -26 3 -7 -5 -28 -5 -47 -1 -19 4 -34 5 -34 1 0 -4 -14 -6
-31 -5 -32 2 -126 -21 -144 -36 -5 -5 -13 -9 -18 -9 -12 -1 -62 -35 -70 -48
-4 -7 -15 -13 -22 -13 -8 0 -15 -7 -15 -15 0 -7 -6 -18 -12 -22 -26 -16 -63
-80 -74 -125 -1 -5 -2 -9 -4 -10 -10 -14 -13 -106 -15 -505 -1 -255 2 -463 7
-463 4 0 8 -9 8 -20 0 -22 27 -84 50 -115 33 -43 106 -107 144 -126 55 -27
117 -46 141 -43 10 2 27 -1 36 -7 11 -5 20 -5 23 0 3 5 21 5 41 1 23 -5 35 -4
35 3 0 8 4 7 12 -1 8 -8 17 -8 31 0 15 7 22 7 28 -3 8 -13 15 -130 9 -154 -3
-11 -2 -21 3 -50 10 -47 20 -62 57 -78 44 -19 78 -12 116 24 21 19 26 73 25
242 0 16 6 18 40 15 21 -2 39 0 39 4 0 4 10 4 23 -1 13 -5 30 -5 39 0 11 6 19
5 23 -1 4 -6 12 -7 18 -3 7 4 26 9 42 10 44 4 55 7 113 32 28 13 52 27 52 32
0 5 5 9 12 9 19 0 96 87 122 137 13 27 27 64 31 83 12 54 13 130 2 130 -6 0
-7 3 -4 7 9 9 -40 53 -61 54 -9 1 -24 2 -32 3 -19 2 -67 -30 -80 -54 -5 -10
-12 -36 -15 -58 -7 -56 -25 -92 -62 -126 -43 -39 -88 -53 -162 -52 -34 1 -61
-3 -61 -8 0 -5 -6 -4 -13 2 -7 6 -18 8 -24 4 -6 -4 -54 -5 -107 -2 -53 3 -96
1 -96 -4 0 -5 -6 -3 -13 3 -8 6 -17 8 -20 5 -4 -4 -44 -6 -89 -5 -122 3 -153
9 -194 36 -39 25 -48 35 -70 75 -17 33 -19 66 -20 468 0 254 3 432 9 432 5 0
7 6 4 13 -7 19 51 97 72 97 6 0 11 4 11 8 0 18 75 30 171 29 54 -1 99 2 99 7
0 5 6 4 13 -2 7 -6 18 -8 24 -4 6 4 54 5 107 2 53 -3 96 -1 96 4 0 5 6 4 13
-2 7 -6 18 -7 25 -3 7 4 33 5 57 1 30 -5 45 -3 45 4 0 6 5 4 10 -4 5 -8 10
-12 10 -8 0 4 19 0 43 -9 54 -21 103 -74 113 -121 4 -21 9 -46 11 -57 3 -11 6
-25 7 -31 6 -33 54 -66 99 -69 28 -2 86 43 88 68 1 6 2 25 4 42 3 43 -31 175
-47 175 -4 0 -8 6 -8 13 0 6 -13 26 -30 43 -16 18 -26 35 -23 38 4 3 -1 6 -10
6 -10 0 -17 5 -17 10 0 6 -7 10 -16 10 -8 0 -13 4 -9 9 3 5 -5 13 -17 17 -13
3 -34 15 -48 24 -14 10 -28 18 -32 19 -5 1 -9 1 -10 2 -5 1 -64 10 -120 18
-36 5 -58 4 -58 -2 0 -5 -5 -5 -13 1 -7 6 -18 8 -25 3 -21 -12 -84 0 -78 15 3
8 2 14 -2 14 -4 0 -7 47 -7 105 0 101 -1 106 -27 130 -27 25 -69 36 -98 27z"/>
<path d="M4134 2648 c-43 -24 -53 -45 -60 -125 -12 -151 -19 -218 -24 -218 -1
0 -3 -13 -5 -30 -2 -16 -6 -39 -9 -50 -3 -11 -12 -47 -21 -80 -9 -33 -17 -66
-17 -72 -1 -7 -5 -13 -10 -13 -4 0 -8 -6 -8 -14 0 -8 -5 -27 -12 -43 -6 -15
-12 -30 -13 -33 -6 -20 -61 -126 -68 -131 -5 -3 -8 -9 -7 -13 2 -7 -57 -100
-110 -175 -56 -78 -256 -281 -278 -281 -4 0 -21 -14 -39 -30 -18 -17 -34 -30
-37 -30 -3 0 -32 -17 -63 -37 -32 -21 -60 -38 -63 -38 -3 -1 -23 -10 -45 -22
-22 -11 -43 -20 -46 -19 -4 0 -16 -7 -27 -17 -11 -10 -23 -17 -28 -16 -5 2
-26 -5 -48 -14 -50 -22 -136 -47 -136 -40 0 3 -6 0 -14 -6 -7 -6 -25 -12 -40
-13 -14 -1 -26 -5 -26 -8 0 -3 -10 -5 -22 -6 -13 0 -41 -4 -63 -7 -22 -4 -83
-10 -135 -13 -52 -2 -102 -7 -110 -11 -8 -3 -22 -7 -30 -9 -28 -5 -57 -54 -54
-88 3 -44 22 -73 57 -87 31 -13 136 -14 222 -3 28 4 61 8 75 10 57 7 97 14
129 24 19 5 38 7 42 4 5 -3 9 0 9 6 0 7 7 10 15 6 8 -3 15 -1 15 5 0 5 6 9 13
8 6 -1 19 0 27 3 8 3 38 14 65 24 28 10 53 17 58 16 4 -1 7 2 7 6 0 5 6 9 13
9 24 0 226 103 255 131 7 6 19 12 27 12 7 0 15 7 19 15 3 8 10 15 16 15 6 0
17 6 24 12 8 7 24 20 36 28 24 16 100 81 137 118 13 13 23 21 23 18 0 -3 21
18 48 47 26 28 53 58 61 67 8 8 41 51 73 95 33 44 66 88 74 98 7 9 11 17 8 17
-3 0 3 12 14 28 31 44 82 142 74 142 -4 0 -2 4 3 8 10 7 36 56 41 77 1 6 8 24
15 40 14 33 20 54 21 73 1 6 6 12 11 12 5 0 7 9 4 20 -3 11 -2 20 3 20 8 0 36
115 34 138 -1 6 1 12 5 12 6 0 12 41 14 93 1 15 4 27 7 27 5 0 7 30 14 165 4
92 -24 141 -86 149 -19 2 -43 -1 -54 -6z"/>
</g>
</svg>
